<mxfile host="app.diagrams.net" agent="Mozilla/5.0 (Windows NT 10.0; Win64; x64) AppleWebKit/537.36 (KHTML, like Gecko) Chrome/133.0.0.0 Safari/537.36" version="26.1.0">
  <diagram id="C5RBs43oDa-KdzZeNtuy" name="Page-1">
    <mxGraphModel dx="2206" dy="2317" grid="1" gridSize="10" guides="1" tooltips="1" connect="1" arrows="1" fold="1" page="1" pageScale="1" pageWidth="827" pageHeight="1169" math="0" shadow="0">
      <root>
        <mxCell id="WIyWlLk6GJQsqaUBKTNV-0" />
        <mxCell id="WIyWlLk6GJQsqaUBKTNV-1" parent="WIyWlLk6GJQsqaUBKTNV-0" />
        <mxCell id="383S6C4EV4HmmKti5TvJ-1" value="&lt;font style=&quot;font-size: 10px;&quot;&gt;Declaration of&lt;/font&gt;&lt;div&gt;&lt;span style=&quot;font-size: 10px; background-color: transparent; color: light-dark(rgb(0, 0, 0), rgb(255, 255, 255));&quot;&gt;PrintInstructions method&lt;/span&gt;&lt;/div&gt;" style="shape=parallelogram;perimeter=parallelogramPerimeter;whiteSpace=wrap;html=1;fixedSize=1;align=center;" vertex="1" parent="WIyWlLk6GJQsqaUBKTNV-1">
          <mxGeometry x="240" y="-520" width="160" height="80" as="geometry" />
        </mxCell>
        <mxCell id="383S6C4EV4HmmKti5TvJ-2" value="&lt;font style=&quot;font-size: 10px;&quot;&gt;Start&lt;/font&gt;" style="ellipse;whiteSpace=wrap;html=1;" vertex="1" parent="WIyWlLk6GJQsqaUBKTNV-1">
          <mxGeometry x="260" y="-920" width="120" height="80" as="geometry" />
        </mxCell>
        <mxCell id="383S6C4EV4HmmKti5TvJ-3" value="&lt;font style=&quot;font-size: 10px;&quot;&gt;Print &quot;Welcome to the game!&quot;&lt;/font&gt;" style="rounded=1;whiteSpace=wrap;html=1;" vertex="1" parent="WIyWlLk6GJQsqaUBKTNV-1">
          <mxGeometry x="240" y="-400" width="160" height="80" as="geometry" />
        </mxCell>
        <mxCell id="383S6C4EV4HmmKti5TvJ-4" value="&lt;font style=&quot;font-size: 10px;&quot;&gt;Print &quot;Move your player with WASD or arrow keys.&quot;&lt;/font&gt;" style="rounded=1;whiteSpace=wrap;html=1;" vertex="1" parent="WIyWlLk6GJQsqaUBKTNV-1">
          <mxGeometry x="240" y="-280" width="160" height="80" as="geometry" />
        </mxCell>
        <mxCell id="383S6C4EV4HmmKti5TvJ-5" value="" style="rounded=0;html=1;jettySize=auto;orthogonalLoop=1;fontSize=11;endArrow=block;endFill=0;endSize=8;strokeWidth=1;shadow=0;labelBackgroundColor=none;edgeStyle=orthogonalEdgeStyle;entryX=0.5;entryY=-0.006;entryDx=0;entryDy=0;entryPerimeter=0;" edge="1" parent="WIyWlLk6GJQsqaUBKTNV-1" target="383S6C4EV4HmmKti5TvJ-6">
          <mxGeometry x="0.3333" y="20" relative="1" as="geometry">
            <mxPoint as="offset" />
            <mxPoint x="320" y="-200" as="sourcePoint" />
            <mxPoint x="320.5" y="-160" as="targetPoint" />
            <Array as="points">
              <mxPoint x="320" y="-160" />
              <mxPoint x="320" y="-160" />
            </Array>
          </mxGeometry>
        </mxCell>
        <mxCell id="383S6C4EV4HmmKti5TvJ-6" value="&lt;span style=&quot;font-size: 10px;&quot;&gt;Print &quot;Don&#39;t hit the walls!&quot;&lt;/span&gt;" style="rounded=1;whiteSpace=wrap;html=1;" vertex="1" parent="WIyWlLk6GJQsqaUBKTNV-1">
          <mxGeometry x="240" y="-160" width="160" height="80" as="geometry" />
        </mxCell>
        <mxCell id="383S6C4EV4HmmKti5TvJ-8" value="" style="rounded=0;html=1;jettySize=auto;orthogonalLoop=1;fontSize=11;endArrow=block;endFill=0;endSize=8;strokeWidth=1;shadow=0;labelBackgroundColor=none;edgeStyle=orthogonalEdgeStyle;entryX=0.469;entryY=0;entryDx=0;entryDy=0;entryPerimeter=0;" edge="1" parent="WIyWlLk6GJQsqaUBKTNV-1">
          <mxGeometry x="0.3333" y="20" relative="1" as="geometry">
            <mxPoint as="offset" />
            <mxPoint x="319.89" y="-440" as="sourcePoint" />
            <mxPoint x="319.93000000000006" y="-400" as="targetPoint" />
            <Array as="points">
              <mxPoint x="319.89" y="-420" />
              <mxPoint x="319.89" y="-420" />
            </Array>
          </mxGeometry>
        </mxCell>
        <mxCell id="383S6C4EV4HmmKti5TvJ-9" value="" style="rounded=0;html=1;jettySize=auto;orthogonalLoop=1;fontSize=11;endArrow=block;endFill=0;endSize=8;strokeWidth=1;shadow=0;labelBackgroundColor=none;edgeStyle=orthogonalEdgeStyle;" edge="1" parent="WIyWlLk6GJQsqaUBKTNV-1">
          <mxGeometry x="0.3333" y="20" relative="1" as="geometry">
            <mxPoint as="offset" />
            <mxPoint x="319.98" y="-320" as="sourcePoint" />
            <mxPoint x="320" y="-280" as="targetPoint" />
            <Array as="points">
              <mxPoint x="320" y="-320" />
            </Array>
          </mxGeometry>
        </mxCell>
        <mxCell id="383S6C4EV4HmmKti5TvJ-12" value="&lt;font style=&quot;font-size: 10px;&quot;&gt;End&lt;/font&gt;" style="ellipse;whiteSpace=wrap;html=1;" vertex="1" parent="WIyWlLk6GJQsqaUBKTNV-1">
          <mxGeometry x="260" y="120" width="120" height="80" as="geometry" />
        </mxCell>
        <mxCell id="383S6C4EV4HmmKti5TvJ-13" value="" style="rounded=0;html=1;jettySize=auto;orthogonalLoop=1;fontSize=11;endArrow=block;endFill=0;endSize=8;strokeWidth=1;shadow=0;labelBackgroundColor=none;edgeStyle=orthogonalEdgeStyle;entryX=0.5;entryY=0;entryDx=0;entryDy=0;" edge="1" parent="WIyWlLk6GJQsqaUBKTNV-1">
          <mxGeometry x="0.3333" y="20" relative="1" as="geometry">
            <mxPoint as="offset" />
            <mxPoint x="320.12" y="80" as="sourcePoint" />
            <mxPoint x="319.88" y="120" as="targetPoint" />
            <Array as="points">
              <mxPoint x="319.88" y="100" />
              <mxPoint x="319.88" y="100" />
            </Array>
          </mxGeometry>
        </mxCell>
        <mxCell id="383S6C4EV4HmmKti5TvJ-14" value="" style="rounded=0;html=1;jettySize=auto;orthogonalLoop=1;fontSize=11;endArrow=block;endFill=0;endSize=8;strokeWidth=1;shadow=0;labelBackgroundColor=none;edgeStyle=orthogonalEdgeStyle;entryX=0.5;entryY=-0.006;entryDx=0;entryDy=0;entryPerimeter=0;" edge="1" parent="WIyWlLk6GJQsqaUBKTNV-1" target="383S6C4EV4HmmKti5TvJ-15">
          <mxGeometry x="0.3333" y="20" relative="1" as="geometry">
            <mxPoint as="offset" />
            <mxPoint x="320" y="-80" as="sourcePoint" />
            <mxPoint x="320.5" y="-40" as="targetPoint" />
            <Array as="points">
              <mxPoint x="320" y="-40" />
              <mxPoint x="320" y="-40" />
            </Array>
          </mxGeometry>
        </mxCell>
        <mxCell id="383S6C4EV4HmmKti5TvJ-15" value="&lt;span style=&quot;font-size: 10px;&quot;&gt;Print&amp;nbsp;&quot;Reach the finish before time runs out!&quot;&lt;/span&gt;" style="rounded=1;whiteSpace=wrap;html=1;" vertex="1" parent="WIyWlLk6GJQsqaUBKTNV-1">
          <mxGeometry x="240" y="-40" width="160" height="80" as="geometry" />
        </mxCell>
        <mxCell id="383S6C4EV4HmmKti5TvJ-16" value="" style="rounded=0;html=1;jettySize=auto;orthogonalLoop=1;fontSize=11;endArrow=block;endFill=0;endSize=8;strokeWidth=1;shadow=0;labelBackgroundColor=none;edgeStyle=orthogonalEdgeStyle;exitX=0.5;exitY=1;exitDx=0;exitDy=0;" edge="1" parent="WIyWlLk6GJQsqaUBKTNV-1" source="383S6C4EV4HmmKti5TvJ-15">
          <mxGeometry x="0.3333" y="20" relative="1" as="geometry">
            <mxPoint as="offset" />
            <mxPoint x="320" y="40" as="sourcePoint" />
            <mxPoint x="390" y="-480" as="targetPoint" />
            <Array as="points">
              <mxPoint x="320" y="80" />
              <mxPoint x="430" y="80" />
              <mxPoint x="430" y="-480" />
            </Array>
          </mxGeometry>
        </mxCell>
        <mxCell id="383S6C4EV4HmmKti5TvJ-18" value="&lt;span style=&quot;background-color: transparent; color: light-dark(rgb(0, 0, 0), rgb(255, 255, 255)); font-size: 10px;&quot;&gt;Start method&lt;/span&gt;" style="shape=parallelogram;perimeter=parallelogramPerimeter;whiteSpace=wrap;html=1;fixedSize=1;align=center;" vertex="1" parent="WIyWlLk6GJQsqaUBKTNV-1">
          <mxGeometry x="240" y="-800" width="160" height="80" as="geometry" />
        </mxCell>
        <mxCell id="383S6C4EV4HmmKti5TvJ-19" value="&lt;font style=&quot;font-size: 10px;&quot;&gt;Calling of&lt;/font&gt;&lt;div&gt;&lt;span style=&quot;background-color: transparent; color: light-dark(rgb(0, 0, 0), rgb(255, 255, 255)); font-size: 10px;&quot;&gt;PrintInstructions method&lt;/span&gt;&lt;/div&gt;" style="shape=parallelogram;perimeter=parallelogramPerimeter;whiteSpace=wrap;html=1;fixedSize=1;align=center;" vertex="1" parent="WIyWlLk6GJQsqaUBKTNV-1">
          <mxGeometry x="240" y="-680" width="160" height="80" as="geometry" />
        </mxCell>
        <mxCell id="383S6C4EV4HmmKti5TvJ-20" value="" style="rounded=0;html=1;jettySize=auto;orthogonalLoop=1;fontSize=11;endArrow=block;endFill=0;endSize=8;strokeWidth=1;shadow=0;labelBackgroundColor=none;edgeStyle=orthogonalEdgeStyle;entryX=0.469;entryY=0;entryDx=0;entryDy=0;entryPerimeter=0;" edge="1" parent="WIyWlLk6GJQsqaUBKTNV-1">
          <mxGeometry x="0.3333" y="20" relative="1" as="geometry">
            <mxPoint as="offset" />
            <mxPoint x="319.5" y="-720" as="sourcePoint" />
            <mxPoint x="319.5400000000001" y="-680" as="targetPoint" />
            <Array as="points">
              <mxPoint x="319.5" y="-700" />
              <mxPoint x="319.5" y="-700" />
            </Array>
          </mxGeometry>
        </mxCell>
        <mxCell id="383S6C4EV4HmmKti5TvJ-21" value="" style="rounded=0;html=1;jettySize=auto;orthogonalLoop=1;fontSize=11;endArrow=block;endFill=0;endSize=8;strokeWidth=1;shadow=0;labelBackgroundColor=none;edgeStyle=orthogonalEdgeStyle;exitX=0.492;exitY=1.001;exitDx=0;exitDy=0;exitPerimeter=0;" edge="1" parent="WIyWlLk6GJQsqaUBKTNV-1" source="383S6C4EV4HmmKti5TvJ-19" target="383S6C4EV4HmmKti5TvJ-18">
          <mxGeometry x="0.3333" y="20" relative="1" as="geometry">
            <mxPoint as="offset" />
            <mxPoint x="300" y="-590" as="sourcePoint" />
            <mxPoint x="430" y="-560" as="targetPoint" />
            <Array as="points">
              <mxPoint x="320" y="-600" />
              <mxPoint x="320" y="-560" />
              <mxPoint x="430" y="-560" />
              <mxPoint x="430" y="-760" />
            </Array>
          </mxGeometry>
        </mxCell>
        <mxCell id="383S6C4EV4HmmKti5TvJ-22" value="" style="rounded=0;html=1;jettySize=auto;orthogonalLoop=1;fontSize=11;endArrow=block;endFill=0;endSize=8;strokeWidth=1;shadow=0;labelBackgroundColor=none;edgeStyle=orthogonalEdgeStyle;entryX=0.469;entryY=0;entryDx=0;entryDy=0;entryPerimeter=0;" edge="1" parent="WIyWlLk6GJQsqaUBKTNV-1">
          <mxGeometry x="0.3333" y="20" relative="1" as="geometry">
            <mxPoint as="offset" />
            <mxPoint x="319.96" y="-560" as="sourcePoint" />
            <mxPoint x="320.00000000000006" y="-520" as="targetPoint" />
            <Array as="points">
              <mxPoint x="320" y="-540" />
              <mxPoint x="320" y="-540" />
            </Array>
          </mxGeometry>
        </mxCell>
        <mxCell id="383S6C4EV4HmmKti5TvJ-23" value="" style="rounded=0;html=1;jettySize=auto;orthogonalLoop=1;fontSize=11;endArrow=block;endFill=0;endSize=8;strokeWidth=1;shadow=0;labelBackgroundColor=none;edgeStyle=orthogonalEdgeStyle;entryX=0.469;entryY=0;entryDx=0;entryDy=0;entryPerimeter=0;" edge="1" parent="WIyWlLk6GJQsqaUBKTNV-1">
          <mxGeometry x="0.3333" y="20" relative="1" as="geometry">
            <mxPoint as="offset" />
            <mxPoint x="319.78999999999996" y="-840" as="sourcePoint" />
            <mxPoint x="319.83000000000004" y="-800" as="targetPoint" />
            <Array as="points">
              <mxPoint x="319.78999999999996" y="-820" />
              <mxPoint x="319.78999999999996" y="-820" />
            </Array>
          </mxGeometry>
        </mxCell>
      </root>
    </mxGraphModel>
  </diagram>
</mxfile>
